# xmcd CD database file
#
# Track frame offsets:
#	150
#	15998
#	38514
#	56355
#	72292
#	91304
#	111835
#	133717
#	154876
#	171972
#	187727
#	201039
#	220198
#	239205
#	255930
#
# Disc length: 3691 seconds
#
# Revision: 0
# Processed by: cddbd v1.5PL3 Copyright (c) Steve Scherf et al.
# Submitted via: CDex 1.60beta1
#
DISCID=c40e690f
DTITLE=Johnny Adams - The Immortal Soul of Johnny Adams
DYEAR=1999
DGENRE=Blues
TTITLE0=I Only Wanna Be With You 
TTITLE1=I'll Never Fall in Love Again 
TTITLE2=Love Me Now
TTITLE3=Stairway to Heaven
TTITLE4=Give Me a Chance
TTITLE5=Turning Point
TTITLE6=Who Will the Next Fool Be
TTITLE7=Your Love Is All I Need
TTITLE8=Stay With Me
TTITLE9=Share Your Love
TTITLE10=Closer to You
TTITLE11=Sharing With You
TTITLE12=Think About You
TTITLE13=Don't Let the Green Grass Fool You
TTITLE14=Spanish Harlem
EXTD=YEAR: 1999
EXTT0=
EXTT1=
EXTT2=
EXTT3=
EXTT4=
EXTT5=
EXTT6=
EXTT7=
EXTT8=
EXTT9=
EXTT10=
EXTT11=
EXTT12=
EXTT13=
EXTT14=
PLAYORDER=
